<?xml version="1.0" encoding="utf-8"?>
<!-- Generator: Adobe Illustrator 13.0.1, SVG Export Plug-In . SVG Version: 6.00 Build 14948)  -->
<!DOCTYPE svg PUBLIC "-//W3C//DTD SVG 1.1//EN" "http://www.w3.org/Graphics/SVG/1.1/DTD/svg11.dtd">
<svg version="1.1" id="Layer_1" xmlns="http://www.w3.org/2000/svg" xmlns:xlink="http://www.w3.org/1999/xlink" x="0px" y="0px"
	 width="720px" height="440px" viewBox="0 0 72 44.005" enable-background="new 0 0 72 44.005" xml:space="preserve">
<g>
	<g>
		<g>
			<path fill-rule="evenodd" clip-rule="evenodd" fill="#035087" d="M0.03,23.263h7.479c4,0,7.047,1.938,7.047,5.386
				c0,3.539-3.293,5.785-6.771,5.785c-0.769,0-1.539-0.092-2.246-0.431c2.646-0.154,5.508-1.785,5.508-4.739
				c0-2.708-1.908-3.785-4.37-3.785c-0.739,0-1.447,0.062-2.154,0.185v13.879c0,1.724-0.031,2.955,1.6,3.878v0.093H0V43.42
				c1.569-0.554,1.385-2.831,1.385-4.216V27.602c0-1.385,0.185-3.631-1.354-4.247V23.263 M20.335,31.418h1.016
				c2,0,4.862-0.678,4.862-3.201c0-2.123-1.97-3.23-3.816-3.046l-2.062,0.215V31.418z M20.335,41.05l2.677,0.247
				c2.523,0.246,5.078-0.924,5.078-3.847c0-2.985-2.893-4.278-5.601-4.125l-2.154,0.124V41.05z M17.196,39.173V27.571
				c0-1.385,0.216-3.632-1.354-4.217v-0.092h7.293c4.062,0,6.432,1.724,6.432,4.462c0,2.062-1.323,3.231-3.078,4.001
				c2.77,0.585,5.017,2.431,5.017,5.447c0,2.369-1.631,4.4-3.693,5.386c-2.154,1.046-4.586,0.954-6.894,0.954h-5.078V43.42
				C17.38,42.835,17.196,40.589,17.196,39.173z M50.674,23.293v3.539h-0.092c-1.262-1.415-3.602-1.846-5.479-1.846
				c-4.801,0-8.463,3.139-8.463,8.094c0,4.954,3.94,8.709,8.801,8.709c1.416,0,2.894-0.185,4.278-0.585v-4.432
				c0-1.415-0.03-2.924-1.415-3.478v-0.092h4.708v0.092c-0.153,0.369-0.153,0.861-0.153,1.323v7.079
				c0,0.461-0.031,0.953,0.153,1.385c-2.462,0.461-4.862,0.923-7.355,0.923c-7.878,0-12.525-4.309-12.525-10.495
				c0-6.616,5.263-10.739,12.71-10.739C47.473,22.771,49.074,22.955,50.674,23.293z M70.43,23.539v3.539
				c-1.692-1.077-3.662-1.754-5.693-1.754c-4.246,0-7.201,3.108-7.201,7.571c0,4.523,3.078,8.555,7.816,8.555
				c2.309,0,4.617-0.83,6.556-1.938H72l-1.57,3.57c-1.445,0.677-3.047,0.923-4.646,0.923c-7.264,0-11.756-4.062-11.756-10.648
				c0-6.37,4.492-10.586,10.802-10.586C66.707,22.771,68.615,23.108,70.43,23.539z"/>
			<path fill-rule="evenodd" clip-rule="evenodd" fill="#FFFFFF" d="M29.499,1.071C31.583,0.362,33.688,0,36.012,0
				c2.283,0,4.436,0.349,6.488,1.033L37.79,15.19c-0.552-0.18-1.176-0.295-1.788-0.295c-0.652,0-1.224,0.092-1.807,0.295
				L29.499,1.071"/>
			<path fill-rule="evenodd" clip-rule="evenodd" fill="#035087" d="M29.499,1.071C31.583,0.362,33.688,0,36.012,0
				c2.283,0,4.436,0.349,6.488,1.033L37.79,15.19c-0.552-0.18-1.176-0.295-1.788-0.295c-0.651,0-1.224,0.092-1.807,0.295
				L29.499,1.071 M35.989,2.69l-0.823,2.533h-2.663l2.154,1.565l-0.823,2.533l2.155-1.565l2.154,1.565l-0.822-2.533l2.154-1.565
				h-2.663L35.989,2.69z"/>
			<path fill-rule="evenodd" clip-rule="evenodd" fill="#EF3F43" d="M17.617,20.567c0-7.449,4.504-13.879,10.866-16.78l1.936,5.434
				c-4.119,1.995-7.062,6.194-7.062,11.347c0,0.161,0.003,0.322,0.009,0.481h-5.742C17.62,20.889,17.617,20.729,17.617,20.567
				 M30.975,10.761c-3.69,1.974-5.937,5.549-5.995,9.808c0,0.161,0.003,0.321,0.01,0.481l5.359-0.008
				c-0.014-0.158-0.021-0.319-0.021-0.481c0-2.091,1.033-3.754,2.479-4.691L30.975,10.761z M40.997,10.765
				c3.561,1.906,5.948,5.339,6.021,9.804c0,0.161-0.004,0.321-0.011,0.481h-5.373c0.013-0.159,0.021-0.319,0.021-0.481
				c0.037-1.848-0.988-3.797-2.491-4.695L40.997,10.765z M43.507,3.803c6.421,2.878,10.823,9.266,10.862,16.758
				c0,0.161-0.002,0.322-0.006,0.481h-5.748c0.006-0.159,0.008-0.319,0.008-0.481c0-4.971-2.91-9.258-7.068-11.345L43.507,3.803z"/>
		</g>
	</g>
</g>
</svg>
